<?xml version="1.0" standalone="no"?>
<!DOCTYPE svg PUBLIC "-//W3C//DTD SVG 20010904//EN"
 "http://www.w3.org/TR/2001/REC-SVG-20010904/DTD/svg10.dtd">
<svg version="1.0" xmlns="http://www.w3.org/2000/svg"
 width="500.000000pt" height="500.000000pt" viewBox="0 0 500.000000 500.000000"
 preserveAspectRatio="xMidYMid meet">

<g transform="translate(0.000000,500.000000) scale(0.100000,-0.100000)"
fill="#000000" stroke="none">
<path d="M2669 4500 c-24 -10 -87 -36 -139 -58 -52 -22 -207 -87 -345 -145
-390 -164 -407 -171 -409 -181 -1 -9 94 -49 337 -142 l98 -38 -3 -50 -3 -51
-175 -1 c-101 -1 -193 -6 -217 -13 -53 -15 -98 -52 -125 -104 -20 -41 -21 -48
-20 -974 l1 -934 22 -38 c22 -39 70 -73 124 -86 47 -11 1667 -7 1698 4 34 13
36 47 5 57 -34 10 -38 21 -38 114 l0 86 30 11 c62 23 60 -4 60 930 0 823 -1
849 -20 880 -20 34 -66 63 -100 63 -18 0 -20 6 -20 53 0 28 -3 75 -6 102 l-6
51 97 38 c65 26 93 42 86 49 -8 8 -158 77 -168 77 -2 0 -3 -18 -3 -41 0 -52
-16 -42 -25 16 -5 34 -12 48 -28 55 -80 32 -443 188 -543 233 l-121 54 -44
-17z m33 -173 c-3 -67 -8 -97 -16 -94 -18 7 -47 -13 -40 -26 4 -7 4 -9 -1 -5
-4 4 -21 0 -37 -8 -16 -8 -33 -12 -38 -9 -5 3 -11 1 -15 -5 -3 -5 -11 -10 -17
-10 -6 0 -5 7 3 17 12 15 12 16 -4 10 -9 -3 -27 -3 -40 2 -12 4 -48 5 -79 2
-32 -4 -58 -3 -58 2 0 4 -6 5 -12 1 -7 -5 -19 -9 -28 -10 -79 -8 -116 -17
-157 -35 -26 -11 -57 -24 -68 -29 -11 -4 -38 -16 -60 -27 -40 -19 -47 -19
-115 4 -16 5 48 37 200 100 47 19 103 43 125 53 83 37 372 153 410 165 22 6
43 9 46 6 3 -3 4 -50 1 -104z m-192 -145 c0 -4 -9 -8 -19 -8 -11 0 -17 4 -15
8 3 4 12 8 20 8 8 0 14 -4 14 -8z m113 -178 l77 -19 0 -173 c0 -162 -1 -174
-17 -167 -10 3 -47 14 -83 24 -121 34 -245 73 -299 94 l-53 20 6 45 c3 25 6
70 6 102 l0 56 48 22 c40 18 62 21 142 18 52 -2 130 -12 173 -22z m757 -90 l0
-84 -74 0 c-83 0 -86 3 -86 75 l0 43 73 29 c39 17 75 28 80 26 4 -2 7 -42 7
-89z m-1383 -1019 c1 -861 0 -885 -18 -885 -18 0 -19 24 -19 854 0 469 -3 868
-6 885 -6 28 -4 31 18 31 l24 0 1 -885z m-107 865 c0 -5 -6 -9 -12 -7 -10 1
-15 -32 -19 -128 -4 -71 -7 -140 -8 -152 -1 -15 -7 -23 -18 -23 -10 0 -36 -12
-58 -25 -22 -14 -43 -25 -47 -25 -5 0 -8 60 -8 134 0 122 2 136 23 166 12 18
38 41 57 51 37 20 90 25 90 9z m1565 -107 c3 -38 8 -78 11 -90 3 -16 0 -23
-11 -23 -9 0 -21 -13 -26 -30 -14 -39 -25 -38 -43 5 -9 20 -22 35 -32 35 -14
0 -16 7 -10 38 3 20 6 58 6 85 l0 47 49 0 49 0 7 -67z m-360 47 c-3 -5 -27
-16 -53 -24 -26 -8 -56 -17 -67 -21 l-20 -7 20 14 c18 12 98 44 118 47 5 0 5
-3 2 -9z m-635 -52 c211 -74 240 -80 300 -62 28 8 56 14 62 12 17 -6 -83 -51
-112 -51 -27 0 -332 112 -378 138 -15 9 -18 13 -7 10 11 -4 72 -25 135 -47z
m-8 -200 c71 -27 155 -67 188 -89 l60 -39 0 -335 c0 -184 -2 -335 -4 -335 -2
0 -23 11 -47 24 -56 31 -217 86 -336 116 l-93 23 0 363 0 364 53 -21 c28 -11
109 -43 179 -71z m781 -281 c-4 -248 -9 -360 -17 -362 -6 -2 -56 -13 -111 -25
-106 -24 -272 -87 -317 -120 -15 -11 -30 -20 -33 -20 -3 0 -5 155 -5 344 l0
345 28 19 c36 26 130 69 267 121 61 23 126 48 145 56 19 7 38 10 42 7 3 -4 4
-168 1 -365z m-1053 -82 l0 -315 28 -6 c237 -54 371 -104 498 -184 l31 -20 39
31 c71 56 220 115 384 150 52 12 103 25 113 30 16 9 17 35 17 320 0 244 3 310
13 307 9 -4 13 -73 17 -284 6 -356 4 -394 -22 -394 -36 0 -250 -50 -352 -82
-83 -27 -106 -39 -143 -76 -42 -41 -48 -44 -86 -39 -29 4 -49 15 -72 40 -22
24 -56 43 -120 66 -81 30 -274 75 -350 83 l-30 3 -3 343 c-2 337 -2 342 18
342 20 0 20 -6 20 -315z m-317 265 l-3 -35 15 25 14 25 1 -26 c0 -24 -4 -27
-49 -33 -30 -4 -64 -18 -90 -36 l-41 -30 0 38 c0 27 7 45 23 59 34 32 79 53
107 50 22 -2 25 -6 23 -37z m-4 -312 c-4 -112 -7 -240 -8 -285 -1 -60 -5 -83
-14 -83 -6 0 -33 -11 -59 -25 -26 -14 -50 -25 -53 -25 -3 0 -5 123 -5 273 l0
273 29 28 c15 15 41 31 57 36 63 18 60 29 53 -192z m255 -368 c12 -4 48 -11
80 -15 43 -6 56 -11 52 -21 -4 -9 2 -14 15 -14 11 0 17 5 14 10 -9 15 2 13
128 -19 127 -33 197 -59 197 -72 0 -15 -38 -10 -144 20 -159 45 -187 50 -284
52 -51 1 -95 5 -98 10 -3 5 -2 42 3 82 8 68 8 69 11 24 3 -39 7 -50 26 -57z
m1274 0 l-3 -42 -92 -3 c-86 -3 -119 4 -93 20 6 4 45 12 88 18 74 12 77 13 80
41 6 46 24 15 20 -34z m-1540 -96 c-2 -21 -18 -36 -67 -65 -34 -22 -65 -39
-67 -39 -2 0 -4 11 -4 25 0 53 55 104 113 105 25 0 28 -3 25 -26z m39 4 c-3
-8 -6 -5 -6 6 -1 11 2 17 5 13 3 -3 4 -12 1 -19z m1116 -11 c-3 -5 -22 -6 -42
-3 -21 4 -31 3 -23 -2 9 -6 1 -12 -26 -20 -47 -14 -72 -15 -72 -3 0 6 21 16
48 24 52 15 123 17 115 4z m-596 -73 c43 -27 37 -88 -12 -120 l-25 -16 0 -172
c0 -95 -3 -175 -6 -179 -3 -3 -12 -3 -20 0 -11 4 -14 39 -14 178 0 171 0 173
-24 188 -32 21 -40 60 -21 98 26 48 68 57 122 23z m737 15 c52 -24 56 -106 6
-147 -18 -16 -20 -30 -22 -186 -2 -125 -6 -170 -15 -174 -10 -3 -13 36 -13
175 l0 178 -35 28 c-46 37 -47 75 -4 111 34 29 47 31 83 15z m-530 -271 c0
-210 -2 -233 -17 -236 -16 -3 -17 18 -17 243 0 232 1 245 18 236 16 -8 17 -29
16 -243z m266 2 c0 -223 -1 -230 -20 -230 -18 0 -20 7 -20 78 0 44 3 147 7
230 5 117 9 152 20 152 10 0 13 -44 13 -230z m-1027 178 c-1 -24 -2 -51 -2
-60 -1 -10 -7 -18 -15 -18 -8 0 -15 -14 -18 -35 -3 -29 -1 -34 12 -30 12 4 16
-2 16 -20 0 -16 -7 -27 -19 -31 -10 -3 -35 -17 -54 -30 -20 -13 -40 -24 -45
-24 -6 0 -8 47 -6 116 3 115 3 116 33 140 16 13 32 19 35 14 4 -6 14 -4 26 5
31 23 39 18 37 -27z m897 -208 c0 -110 -2 -200 -4 -200 -2 0 -11 -3 -20 -6
-14 -5 -16 13 -16 162 0 190 6 244 26 244 11 0 14 -37 14 -200z m255 -11 c6
-150 5 -173 -9 -187 -15 -15 -16 -2 -16 171 0 103 4 187 9 187 5 0 12 -77 16
-171z m-782 59 c28 -33 32 -67 12 -105 -10 -18 -22 -33 -27 -33 -4 0 -8 -27
-8 -60 0 -53 -2 -60 -20 -60 -18 0 -20 7 -20 58 0 53 -2 58 -30 74 -53 30 -59
90 -14 129 39 33 76 32 107 -3z m1126 8 c12 -13 24 -40 28 -60 5 -32 2 -40
-31 -70 -32 -31 -36 -40 -36 -86 0 -44 -3 -51 -17 -48 -14 3 -18 14 -18 55 0
40 -6 57 -23 75 -30 33 -38 78 -18 116 25 48 78 57 115 18z m-864 -120 c4 -69
4 -130 0 -135 -19 -31 -25 0 -25 124 0 74 4 135 9 135 5 0 12 -56 16 -124z
m-639 -43 c-7 -53 -23 -70 -43 -45 -11 15 -12 12 -13 -19 0 -38 -41 -96 -60
-84 -6 3 -10 32 -10 64 0 68 20 102 64 106 16 2 33 8 39 14 22 22 30 10 23
-36z m1581 -258 l3 -95 -706 0 -705 0 7 23 c18 58 25 66 61 78 24 7 150 14
338 17 165 3 285 8 267 12 -38 9 -752 13 -752 5 0 -3 7 -17 16 -30 11 -18 14
-35 9 -65 -6 -38 -9 -40 -42 -40 -46 0 -109 36 -123 70 -15 36 1 75 42 100 32
19 51 20 808 20 l775 0 2 -95z"/>
<path d="M2448 4243 c6 -2 18 -2 25 0 6 3 1 5 -13 5 -14 0 -19 -2 -12 -5z"/>
<path d="M2445 4220 c-8 -13 5 -13 25 0 13 8 13 10 -2 10 -9 0 -20 -4 -23 -10z"/>
<path d="M2300 3361 c0 -9 34 -24 170 -71 36 -13 84 -31 108 -41 49 -21 62
-23 62 -9 0 15 -55 39 -196 86 -145 48 -144 48 -144 35z"/>
<path d="M2295 3269 c3 -8 29 -21 58 -30 93 -29 211 -76 250 -99 31 -18 37
-19 37 -6 0 19 -43 41 -185 94 -140 52 -167 59 -160 41z"/>
<path d="M2294 3179 c-3 -6 -4 -12 -3 -13 2 -2 60 -23 129 -46 69 -24 139 -51
155 -60 50 -27 65 -31 65 -15 0 20 -44 41 -202 96 -85 29 -140 44 -144 38z"/>
<path d="M2300 3071 c0 -4 46 -23 103 -41 56 -18 132 -46 170 -61 52 -22 67
-25 67 -14 0 17 -36 33 -190 86 -116 39 -150 46 -150 30z"/>
<path d="M2300 2989 c0 -9 44 -29 118 -53 64 -22 140 -50 167 -62 28 -13 52
-18 54 -13 6 18 -32 37 -174 85 -77 26 -146 49 -152 52 -7 2 -13 -2 -13 -9z"/>
<path d="M2300 2897 c0 -8 42 -26 108 -46 59 -18 129 -44 156 -57 61 -31 95
-29 51 3 -23 16 -289 113 -311 113 -2 0 -4 -6 -4 -13z"/>
<path d="M3135 3373 c-94 -21 -334 -118 -322 -129 3 -4 55 12 114 34 59 22
136 49 170 59 35 10 63 24 63 31 0 6 -1 11 -2 11 -2 -1 -12 -3 -23 -6z"/>
<path d="M3030 3245 c-145 -50 -210 -77 -210 -87 0 -13 10 -10 145 41 72 27
145 52 162 56 34 7 49 20 35 29 -4 2 -64 -15 -132 -39z"/>
<path d="M3005 3146 c-125 -44 -179 -69 -190 -86 -9 -15 -3 -13 82 21 42 16
118 44 169 60 92 29 127 50 82 48 -13 0 -77 -20 -143 -43z"/>
<path d="M3053 3065 c-85 -28 -216 -79 -232 -92 -2 -2 -2 -6 2 -9 3 -4 41 7
84 24 43 17 115 43 160 57 73 23 103 39 92 50 -2 1 -50 -12 -106 -30z"/>
<path d="M3010 2957 c-141 -48 -182 -66 -188 -85 -2 -8 10 -6 40 6 23 10 90
33 148 51 136 42 160 52 160 62 0 16 -33 9 -160 -34z"/>
<path d="M3045 2876 c-122 -41 -224 -87 -208 -93 6 -2 27 4 45 13 18 10 87 34
152 53 66 20 121 42 124 49 5 17 0 16 -113 -22z"/>
<path d="M2332 2468 c-28 -28 -1 -75 38 -63 14 4 20 15 20 35 0 36 -33 53 -58
28z"/>
<path d="M3086 2464 c-19 -19 -20 -25 -3 -48 20 -27 51 -17 55 18 5 42 -24 59
-52 30z"/>
<path d="M1820 2245 c0 -8 2 -15 4 -15 2 0 6 7 10 15 3 8 1 15 -4 15 -6 0 -10
-7 -10 -15z"/>
<path d="M2136 2221 c-25 -27 -6 -61 34 -61 33 0 47 27 30 60 -14 25 -42 26
-64 1z"/>
<path d="M3276 2234 c-29 -28 -16 -74 20 -74 38 0 52 60 20 82 -16 11 -23 10
-40 -8z"/>
<path d="M1443 3788 c-28 -13 -47 -60 -39 -93 4 -14 18 -35 31 -47 25 -21 25
-23 25 -199 l0 -177 68 -61 c59 -53 67 -58 70 -39 3 14 -11 36 -42 67 l-46 47
0 171 c0 170 0 172 25 197 29 30 34 89 9 124 -17 24 -62 29 -101 10z m67 -61
c0 -32 -18 -49 -42 -36 -18 10 -24 39 -11 52 3 4 17 7 30 7 17 0 23 -6 23 -23z"/>
<path d="M3724 3790 c-26 -10 -54 -48 -54 -72 0 -28 22 -67 42 -73 17 -6 18
-20 18 -187 l0 -181 -50 -53 c-47 -50 -60 -77 -42 -88 4 -2 35 26 69 63 l62
68 5 182 c4 180 5 183 30 206 65 60 0 168 -80 135z m40 -46 c20 -8 21 -53 1
-60 -8 -4 -22 -1 -30 6 -18 15 -20 46 -2 53 6 3 13 6 14 6 1 1 8 -2 17 -5z"/>
<path d="M1230 3663 c-41 -15 -60 -46 -60 -99 0 -46 4 -55 31 -78 17 -14 35
-26 40 -26 5 0 9 -52 9 -117 l0 -117 178 -172 c137 -134 178 -168 180 -153 5
26 -55 95 -193 225 l-115 106 0 114 c0 103 2 114 20 124 23 13 50 60 50 90 0
67 -79 125 -140 103z m72 -78 c27 -61 -42 -105 -78 -50 -14 21 -15 31 -6 50
16 35 68 35 84 0z"/>
<path d="M3952 3658 c-36 -10 -72 -57 -72 -96 0 -32 26 -79 52 -93 20 -11 21
-16 15 -122 l-7 -110 -155 -158 c-99 -101 -155 -165 -155 -178 0 -33 15 -25
67 32 26 28 103 108 170 176 l123 123 0 109 0 109 28 12 c54 24 78 67 68 122
-11 58 -71 91 -134 74z m60 -55 c27 -24 24 -81 -4 -92 -60 -22 -103 44 -58 89
24 24 38 25 62 3z"/>
<path d="M1013 3233 c-32 -6 -80 -57 -88 -93 -15 -66 29 -133 96 -147 16 -3
29 -9 29 -13 0 -5 52 -59 115 -121 63 -62 115 -116 115 -121 0 -4 -37 -8 -83
-8 -82 0 -83 0 -94 29 -12 34 -66 65 -98 57 -12 -3 -34 -18 -48 -32 -58 -57
-21 -154 58 -154 38 0 85 24 85 45 0 8 34 15 111 21 l110 9 135 -137 c74 -76
139 -138 145 -138 36 0 -48 102 -230 279 -183 178 -281 274 -281 276 0 1 16
19 36 40 32 34 37 37 59 25 13 -7 110 -100 217 -206 106 -107 196 -194 201
-194 4 0 7 10 7 23 0 16 -58 79 -206 225 -113 111 -209 202 -214 202 -5 0 -14
17 -20 38 -16 47 -37 71 -77 88 -33 14 -40 15 -80 7z m86 -79 c27 -34 27 -64
1 -92 -30 -32 -82 -30 -109 4 -26 33 -26 41 -1 82 26 43 78 46 109 6z m-50
-398 c7 -8 11 -27 9 -43 -2 -23 -8 -28 -32 -28 -38 0 -54 25 -38 59 13 29 43
34 61 12z"/>
<path d="M4170 3233 c-31 -11 -71 -58 -81 -95 -5 -21 -15 -38 -22 -38 -12 0
-291 -277 -385 -383 -48 -55 -72 -109 -38 -90 7 4 102 101 211 216 108 114
205 211 215 217 14 7 26 1 60 -31 l42 -40 -149 -148 c-279 -280 -393 -403
-393 -428 0 -30 32 -8 93 65 36 42 97 109 137 147 l71 70 107 -2 c74 -1 108
-5 110 -13 19 -57 105 -68 153 -21 16 16 29 40 29 53 0 36 -34 83 -70 98 -40
17 -74 1 -105 -47 -20 -32 -21 -32 -105 -33 l-85 0 111 113 c61 61 114 119
117 128 3 9 22 19 44 22 39 7 70 32 92 74 44 86 -65 200 -159 166z m91 -72
c35 -35 37 -66 7 -98 -30 -33 -80 -31 -107 3 -28 35 -26 69 4 99 32 33 60 31
96 -4z m-1 -411 c11 -11 20 -26 20 -34 0 -18 -27 -46 -45 -46 -39 0 -61 70
-27 89 24 15 29 14 52 -9z"/>
<path d="M1067 2543 c-4 -3 -7 -12 -7 -20 0 -10 27 -13 122 -13 l122 0 147
-150 c81 -82 150 -150 153 -150 3 0 6 10 6 22 0 15 -48 70 -148 170 l-148 148
-121 0 c-66 0 -123 -3 -126 -7z"/>
<path d="M3792 2402 c-148 -153 -169 -179 -155 -193 6 -6 65 46 164 146 l154
155 123 0 c102 0 122 2 122 15 0 13 -22 15 -137 15 l-138 -1 -133 -137z"/>
<path d="M1063 2433 c-33 -6 -71 -50 -78 -92 -12 -71 28 -121 97 -121 52 0 83
17 101 56 15 31 21 34 60 34 40 0 47 -5 118 -77 l76 -78 11 -250 c6 -137 8
-309 5 -382 -5 -122 -8 -134 -29 -154 -29 -27 -31 -60 -6 -82 25 -22 48 -21
72 3 21 21 27 69 11 85 -5 6 -11 186 -14 400 -4 215 -6 391 -7 391 0 1 -39 43
-88 93 l-87 91 -57 0 c-51 0 -56 2 -62 25 -10 39 -70 68 -123 58z m67 -73 c17
-33 8 -73 -19 -87 -30 -14 -57 -2 -73 32 -25 55 64 108 92 55z m348 -1022 c7
-7 12 -20 12 -31 0 -26 -63 -20 -68 7 -6 30 33 47 56 24z"/>
<path d="M4123 2416 c-18 -15 -35 -36 -38 -46 -5 -17 -16 -20 -70 -20 l-64 0
-103 -106 c-81 -83 -105 -114 -110 -142 -4 -20 -7 -109 -7 -196 -1 -127 2
-163 14 -175 8 -9 36 -37 62 -63 l47 -48 4 -130 c4 -128 5 -130 28 -130 27 0
40 16 26 33 -5 7 -12 60 -15 118 -7 116 -14 135 -71 193 -21 22 -42 50 -47 63
-5 13 -9 96 -9 184 l0 160 97 100 96 99 56 0 c51 0 57 -3 73 -29 64 -114 229
-42 189 82 -16 46 -41 68 -88 74 -32 4 -45 0 -70 -21z m97 -46 c38 -38 16
-100 -35 -100 -26 0 -55 33 -55 62 0 22 34 58 55 58 8 0 24 -9 35 -20z"/>
<path d="M1975 1499 c-23 -28 -24 -34 -12 -52 7 -11 29 -26 48 -32 50 -17 45
-41 -8 -37 -46 3 -56 -10 -23 -28 36 -19 83 -8 100 23 14 27 14 29 -13 53 -15
13 -37 24 -48 24 -14 0 -19 5 -17 18 2 12 13 17 37 17 42 0 50 18 16 33 -39
18 -51 15 -80 -19z"/>
<path d="M2162 1510 c-56 -35 -65 -99 -20 -147 25 -27 74 -30 104 -9 27 20 6
43 -25 27 -43 -24 -86 31 -61 78 8 17 20 21 55 21 52 0 58 13 15 35 -35 18
-29 19 -68 -5z"/>
<path d="M2610 1436 c0 -72 3 -95 14 -99 17 -7 26 13 26 61 l1 37 20 -27 c26
-36 40 -35 61 3 23 39 38 29 38 -26 0 -44 15 -69 25 -42 3 7 5 54 3 103 l-3
89 -27 -30 c-14 -16 -35 -41 -46 -55 l-20 -25 -12 30 c-12 32 -52 75 -70 75
-6 0 -10 -35 -10 -94z"/>
<path d="M1630 1429 c0 -81 2 -90 18 -87 10 2 18 14 20 31 3 23 8 27 37 27 42
0 78 34 69 64 -10 37 -43 56 -95 56 l-49 0 0 -91z m100 26 c0 -21 -5 -25 -30
-25 -25 0 -30 4 -30 25 0 21 5 25 30 25 25 0 30 -4 30 -25z"/>
<path d="M1831 1498 c-5 -13 -20 -51 -34 -85 -14 -34 -22 -64 -19 -67 11 -11
32 -6 32 8 0 8 14 18 32 21 26 6 35 3 49 -14 19 -23 39 -28 38 -8 0 6 -13 46
-28 87 -29 80 -54 100 -70 58z m37 -71 c2 -10 -4 -20 -13 -23 -21 -8 -25 -3
-18 24 6 25 26 24 31 -1z"/>
<path d="M2326 1468 c-32 -69 -43 -128 -25 -128 8 0 20 9 27 20 7 11 23 20 37
20 14 0 30 -9 37 -20 15 -23 53 -28 45 -6 -38 100 -71 166 -83 166 -7 0 -24
-24 -38 -52z m48 -24 c10 -26 7 -34 -13 -34 -14 0 -17 6 -13 25 5 28 17 33 26
9z"/>
<path d="M2472 1433 l3 -88 53 -3 c47 -3 52 -1 52 18 0 19 -4 21 -29 15 -38
-8 -46 5 -46 80 0 49 -3 60 -18 63 -16 3 -18 -4 -15 -85z"/>
<path d="M2854 1506 c-3 -7 -4 -46 -2 -87 l3 -74 63 -3 c51 -2 62 0 62 13 0
11 -12 15 -51 15 -43 0 -50 3 -47 18 2 11 15 19 36 22 40 6 43 24 5 28 -64 8
-48 52 18 52 25 0 39 5 39 13 0 17 -119 20 -126 3z"/>
<path d="M3150 1471 c0 -28 -4 -52 -8 -55 -5 -3 -26 17 -46 44 -60 78 -80 62
-74 -55 2 -45 7 -60 18 -60 11 0 16 14 20 48 l5 48 39 -50 c21 -28 44 -51 51
-51 8 0 14 24 18 68 10 99 9 112 -8 112 -11 0 -15 -12 -15 -49z"/>
<path d="M3220 1499 c0 -15 5 -20 23 -17 19 3 22 -2 25 -37 7 -124 34 -142 42
-29 5 65 6 69 28 66 17 -3 22 2 22 17 0 19 -6 21 -70 21 -64 0 -70 -2 -70 -21z"/>
<path d="M3415 1495 c-32 -31 -34 -91 -4 -129 29 -36 86 -36 123 0 40 41 39
86 -5 127 -38 35 -81 36 -114 2z m93 -21 c42 -29 18 -104 -34 -104 -52 0 -75
74 -32 104 12 9 27 16 33 16 6 0 21 -7 33 -16z"/>
<path d="M3610 1430 c0 -73 3 -90 15 -90 10 0 15 10 15 30 0 23 5 30 19 30 11
0 28 -13 38 -30 9 -17 26 -30 36 -30 18 0 19 1 2 26 -15 24 -15 27 0 50 37 58
1 104 -82 104 l-43 0 0 -90z m94 47 c27 -20 10 -47 -30 -47 -29 0 -34 3 -34
23 0 13 3 27 7 30 10 11 38 8 57 -6z"/>
<path d="M1707 1253 c-4 -3 -7 -41 -7 -84 0 -55 -4 -80 -14 -86 -22 -13 -38
-52 -30 -76 23 -77 115 -77 138 0 8 25 -16 78 -39 86 -12 5 -15 24 -15 87 0
60 -3 80 -13 80 -8 0 -17 -3 -20 -7z m50 -219 c8 -20 -8 -48 -30 -52 -18 -4
-41 33 -33 54 7 19 55 18 63 -2z"/>
<path d="M2187 1253 c-4 -3 -7 -93 -7 -198 0 -159 -3 -195 -15 -205 -25 -20
-19 -87 10 -115 39 -40 92 -29 120 24 21 42 3 89 -41 107 l-33 14 -1 181 c0
100 -3 185 -6 190 -6 11 -18 12 -27 2z m57 -439 c19 -19 4 -57 -21 -52 -26 5
-39 34 -24 52 17 20 26 20 45 0z"/>
<path d="M2335 1250 c-3 -5 -5 -81 -4 -167 1 -87 -2 -165 -5 -174 -7 -17 18
-34 35 -23 5 3 9 88 9 190 0 153 -2 184 -14 184 -8 0 -18 -4 -21 -10z"/>
<path d="M2487 1254 c-4 -4 -7 -89 -7 -189 0 -181 0 -182 -25 -205 -33 -31
-32 -65 4 -101 49 -48 114 -30 127 37 5 26 1 35 -30 62 l-36 31 -2 182 c-3
171 -9 205 -31 183z m59 -435 c18 -20 18 -21 -1 -35 -27 -20 -52 -17 -65 7
-24 43 31 67 66 28z"/>
<path d="M2675 1250 c-4 -6 -6 -112 -4 -236 l4 -224 -27 -25 c-39 -36 -44 -67
-19 -109 24 -38 38 -46 83 -46 21 0 39 10 60 32 38 41 33 80 -17 124 l-35 31
-2 229 c-3 204 -5 229 -20 232 -9 2 -19 -2 -23 -8z m55 -530 c24 -24 25 -34 4
-54 -21 -22 -40 -20 -58 6 -20 28 -20 33 0 52 20 21 30 20 54 -4z"/>
<path d="M2917 1253 c-4 -3 -7 -89 -7 -189 0 -174 -1 -184 -20 -194 -45 -24
-46 -103 -3 -136 74 -56 156 67 88 130 -25 23 -25 24 -25 210 0 148 -3 186
-13 186 -8 0 -17 -3 -20 -7z m41 -449 c6 -41 -50 -56 -60 -16 -8 29 3 43 31
40 17 -2 27 -10 29 -24z"/>
<path d="M3067 1253 c-4 -3 -7 -82 -7 -175 0 -161 1 -168 20 -168 18 0 20 7
22 93 5 195 1 257 -15 257 -8 0 -17 -3 -20 -7z"/>
<path d="M3196 1214 c-3 -26 -6 -116 -6 -200 0 -146 -1 -154 -19 -154 -68 0
-64 -145 4 -151 87 -7 122 61 74 141 -20 33 -21 45 -18 220 4 163 2 185 -12
188 -12 2 -18 -8 -23 -44z m34 -414 c7 -13 5 -24 -8 -40 -15 -19 -22 -21 -39
-12 -30 17 -35 40 -13 62 22 22 45 18 60 -10z"/>
<path d="M3340 1180 c0 -78 -1 -83 -30 -110 -38 -36 -40 -81 -5 -115 70 -71
166 35 97 107 -18 20 -22 38 -24 108 -3 71 -6 85 -20 88 -16 3 -18 -6 -18 -78z
m47 -156 c16 -41 -46 -73 -67 -34 -9 16 -8 25 1 36 16 19 58 18 66 -2z"/>
<path d="M3543 1183 c5 -71 4 -80 -16 -101 -31 -33 -30 -97 2 -123 32 -26 85
-25 111 3 35 38 21 101 -31 132 -28 16 -29 20 -29 92 0 69 -1 74 -21 74 -21 0
-22 -3 -16 -77z m68 -149 c16 -20 1 -48 -29 -52 -24 -4 -45 28 -36 52 8 21 48
21 65 0z"/>
<path d="M2010 1171 c0 -76 -1 -79 -26 -85 -36 -9 -74 -50 -74 -81 0 -63 91
-99 139 -54 20 19 22 27 16 68 -4 25 -8 88 -8 139 -1 89 -2 92 -24 92 -22 0
-23 -3 -23 -79z m18 -163 c2 -19 -2 -28 -18 -33 -24 -8 -50 10 -50 35 0 24 10
31 40 28 19 -2 26 -10 28 -30z"/>
</g>
</svg>
