<?xml version="1.0" standalone="no"?>
<!DOCTYPE svg PUBLIC "-//W3C//DTD SVG 20010904//EN"
 "http://www.w3.org/TR/2001/REC-SVG-20010904/DTD/svg10.dtd">
<svg version="1.0" xmlns="http://www.w3.org/2000/svg"
 width="500.000000pt" height="500.000000pt" viewBox="0 0 500.000000 500.000000"
 preserveAspectRatio="xMidYMid meet">

<g transform="translate(0.000000,500.000000) scale(0.100000,-0.100000)"
fill="#FFFFFF" stroke="none">
<path d="M2669 4500 c-24 -10 -87 -36 -139 -58 -52 -22 -207 -87 -345 -145
-390 -164 -407 -171 -409 -181 -1 -9 94 -49 337 -142 l98 -38 -3 -50 -3 -51
-175 -1 c-196 -1 -243 -10 -296 -56 -70 -61 -66 -1 -65 -1036 l0 -933 22 -38
c22 -39 70 -73 124 -86 47 -11 1667 -7 1698 4 34 13 36 47 5 57 -34 10 -38 21
-38 114 l0 86 30 11 c62 23 60 -4 60 930 0 823 -1 849 -20 880 -20 34 -66 63
-100 63 -18 0 -20 6 -20 53 0 28 -3 75 -6 102 l-6 51 96 38 c53 21 96 40 96
43 0 4 -166 83 -175 83 -3 0 -5 -18 -5 -41 0 -52 -16 -42 -25 16 -5 34 -12 48
-28 55 -12 5 -92 38 -177 74 -85 35 -230 98 -321 139 l-166 74 -44 -17z m32
-170 c-4 -68 -10 -94 -18 -92 -8 1 -13 -8 -13 -20 0 -19 -2 -20 -10 -8 -5 8
-10 10 -10 4 0 -12 -69 -36 -82 -28 -5 3 -24 7 -44 9 -28 2 -33 0 -24 -10 9
-11 7 -12 -9 -8 -12 3 -17 11 -14 19 3 8 -1 14 -8 14 -12 0 -12 2 0 9 10 6 10
10 1 16 -7 4 -13 -1 -16 -12 -5 -17 -16 -20 -77 -22 -100 -3 -100 -3 -115 -18
-16 -15 -36 -18 -27 -3 7 11 -74 -17 -89 -32 -6 -4 -17 -8 -25 -8 -9 0 -41
-13 -72 -28 -53 -26 -58 -26 -104 -14 l-48 14 54 23 c165 69 277 117 304 129
66 30 362 149 400 161 22 6 43 9 46 6 4 -3 4 -49 0 -101z m-154 -156 c-3 -3
-12 -4 -19 -1 -8 3 -5 6 6 6 11 1 17 -2 13 -5z m78 -171 l70 -19 3 -173 c2
-161 1 -172 -15 -167 -209 63 -264 80 -293 88 -19 5 -59 19 -89 30 l-53 21 6
45 c3 25 6 71 6 103 l0 57 38 12 c20 7 42 17 47 22 15 15 200 2 280 -19z m755
-89 l0 -85 -77 3 -78 3 -3 56 -3 56 73 30 c40 17 76 28 81 26 4 -2 7 -42 7
-89z m-1383 -1019 c1 -863 0 -885 -18 -885 -19 0 -19 22 -19 854 0 469 -3 868
-6 885 -6 28 -4 31 17 31 l24 0 2 -885z m-107 865 c0 -5 -6 -9 -12 -7 -10 1
-15 -34 -19 -138 -4 -77 -7 -146 -8 -154 -1 -9 -9 -11 -27 -7 -14 4 -23 3 -20
-2 5 -8 -62 -52 -78 -52 -3 0 -6 60 -6 134 0 122 2 136 23 166 12 18 38 41 57
51 37 20 90 25 90 9z m1565 -107 c3 -38 8 -78 11 -90 3 -16 0 -23 -11 -23 -8
0 -22 -17 -31 -37 l-16 -38 -19 43 c-11 25 -25 42 -35 42 -14 0 -16 7 -10 38
3 20 6 58 6 85 l0 47 49 0 49 0 7 -67z m-360 47 c-3 -5 -27 -16 -53 -24 -26
-8 -56 -17 -67 -22 -46 -17 -2 9 52 32 64 26 77 29 68 14z m-625 -55 c227 -77
228 -77 294 -60 31 8 62 15 69 15 23 -1 -98 -53 -123 -53 -27 0 -332 112 -378
138 -15 9 -18 13 -7 10 11 -4 76 -26 145 -50z m470 -5 c-8 -5 -22 -9 -30 -9
-10 0 -8 3 5 9 27 12 43 12 25 0z m-486 -192 c71 -28 155 -69 187 -90 l59 -40
0 -335 c0 -184 -3 -333 -7 -331 -110 56 -295 121 -425 149 l-48 11 0 364 0
364 53 -21 c28 -11 110 -43 181 -71z m779 -281 c-4 -248 -9 -360 -17 -362 -6
-2 -56 -13 -111 -25 -107 -25 -265 -84 -313 -119 -17 -12 -33 -21 -36 -21 -3
0 -6 155 -6 344 l0 345 28 19 c36 26 130 69 267 121 61 23 126 48 145 56 19 7
38 10 42 7 3 -4 4 -168 1 -365z m-1053 -82 l0 -315 28 -6 c238 -54 370 -103
498 -184 l31 -20 39 31 c71 56 220 115 384 150 52 12 103 25 113 30 16 9 17
35 17 320 0 244 3 310 13 307 9 -4 13 -73 17 -284 7 -367 5 -394 -22 -394 -36
0 -249 -50 -352 -82 -83 -27 -106 -39 -143 -76 -42 -41 -48 -44 -86 -39 -29 4
-49 15 -72 40 -22 24 -56 43 -120 66 -81 29 -273 75 -350 83 l-30 3 -3 343
c-2 337 -2 342 18 342 20 0 20 -6 20 -315z m-319 273 c1 -18 3 -25 6 -15 7 25
23 21 23 -7 0 -21 -6 -24 -49 -30 -30 -4 -64 -18 -90 -36 l-41 -30 0 38 c0 27
7 45 23 59 31 29 78 52 105 53 18 0 22 -6 23 -32z m-2 -310 c-4 -106 -7 -235
-8 -285 -1 -67 -4 -93 -14 -93 -6 0 -33 -11 -59 -25 -26 -14 -50 -25 -53 -25
-3 0 -5 123 -5 273 l0 273 29 28 c15 15 41 31 57 36 63 18 60 28 53 -182z
m240 -370 c4 -5 49 -15 101 -24 187 -32 400 -93 400 -116 0 -14 -39 -9 -144
20 -169 48 -193 52 -293 52 l-96 0 7 61 c3 34 7 74 8 88 1 14 3 4 5 -24 2 -27
8 -53 12 -57z m1289 -9 l-3 -44 -80 0 c-45 -1 -87 -5 -95 -10 -10 -6 -12 -4
-7 9 6 14 3 17 -10 12 -13 -5 -15 -4 -7 4 6 6 42 15 80 21 97 13 104 16 104
47 0 18 3 23 11 15 5 -5 9 -30 7 -54z m-1537 -96 c-5 -18 -26 -38 -70 -65 -35
-21 -65 -38 -67 -38 -2 0 -4 11 -4 25 0 54 56 104 117 105 29 0 31 -2 24 -27z
m1119 6 c-11 -8 -8 -9 13 -4 20 4 27 2 22 -6 -5 -6 -19 -9 -37 -5 -16 3 -27 2
-24 -3 5 -8 -58 -31 -88 -31 -36 0 -12 19 47 38 73 23 88 26 67 11z m-585 -74
c61 -25 67 -94 10 -131 l-25 -16 0 -174 c0 -167 -1 -174 -20 -174 -19 0 -20 7
-20 174 0 172 0 174 -24 189 -47 31 -39 107 14 134 31 16 24 16 65 -2z m776
-14 c41 -41 36 -95 -13 -129 -16 -12 -18 -29 -18 -181 0 -141 -2 -170 -15
-175 -13 -5 -15 18 -15 172 l0 177 -30 20 c-52 34 -53 96 -3 127 40 25 60 22
94 -11z m-547 -253 c0 -210 -2 -233 -17 -236 -16 -3 -17 18 -17 243 0 232 1
245 18 236 16 -8 17 -29 16 -243z m266 7 c0 -232 0 -235 -21 -235 -21 0 -21 1
-15 227 6 211 10 241 34 243 1 0 2 -106 2 -235z m-1029 163 c-2 -28 -9 -58
-17 -65 -11 -11 -11 -19 -3 -34 19 -36 19 -58 1 -53 -16 5 -16 4 0 -8 15 -11
10 -16 -40 -45 -31 -18 -61 -33 -65 -33 -5 0 -7 52 -5 116 3 109 4 117 27 136
14 10 32 17 41 15 8 -2 21 2 28 10 26 27 37 15 33 -39z m899 -197 c0 -190 -1
-199 -20 -204 -19 -5 -20 0 -20 161 0 188 6 242 26 242 11 0 14 -37 14 -199z
m253 32 c10 -196 9 -230 -8 -237 -13 -5 -15 19 -15 179 0 102 4 185 8 185 5 0
12 -57 15 -127z m-780 15 c28 -33 32 -67 12 -105 -10 -18 -22 -33 -27 -33 -4
0 -8 -27 -8 -60 0 -53 -2 -60 -20 -60 -18 0 -20 7 -20 58 0 53 -2 58 -30 74
-53 30 -59 90 -14 129 39 33 76 32 107 -3z m1126 8 c12 -13 24 -40 28 -60 5
-32 2 -40 -31 -70 -32 -31 -36 -40 -36 -86 0 -44 -3 -51 -17 -48 -14 3 -18 14
-18 55 0 39 -6 58 -22 75 -29 32 -36 63 -23 103 19 58 79 74 119 31z m-864
-125 c4 -66 4 -124 0 -130 -18 -31 -25 0 -25 119 0 72 4 130 9 130 5 0 12 -54
16 -119z m-635 -28 c0 -21 -4 -44 -9 -51 -9 -14 -32 -13 -43 3 -4 6 -8 -7 -8
-27 0 -21 -4 -38 -10 -38 -5 0 -10 -7 -10 -15 0 -8 -9 -19 -19 -24 -24 -13
-31 2 -31 70 0 40 5 55 25 74 13 14 31 26 40 26 28 3 33 4 41 12 16 16 24 5
24 -30z m1577 -268 l3 -95 -706 0 -705 0 7 23 c18 58 25 66 61 78 24 7 149 13
338 17 165 3 288 8 273 12 -29 9 -758 13 -758 5 0 -3 7 -17 16 -30 11 -18 14
-35 9 -65 -6 -38 -9 -40 -42 -40 -47 0 -109 36 -124 72 -15 38 -1 71 43 98 32
19 51 20 808 20 l775 0 2 -95z"/>
<path d="M2367 4219 c7 -7 15 -10 18 -7 3 3 -2 9 -12 12 -14 6 -15 5 -6 -5z"/>
<path d="M2300 3361 c0 -9 34 -24 170 -71 36 -13 84 -31 108 -41 49 -21 62
-23 62 -9 0 15 -55 39 -196 86 -145 48 -144 48 -144 35z"/>
<path d="M2300 3268 c0 -8 44 -27 107 -48 59 -19 135 -49 170 -67 47 -24 63
-29 63 -18 0 18 -46 41 -185 93 -148 54 -155 56 -155 40z"/>
<path d="M2294 3179 c-3 -6 -4 -12 -3 -13 2 -2 59 -22 127 -45 67 -23 137 -50
155 -59 52 -29 67 -33 67 -17 0 20 -44 41 -202 96 -85 29 -140 44 -144 38z"/>
<path d="M2300 3071 c0 -4 46 -23 103 -41 56 -18 132 -46 170 -61 52 -22 67
-25 67 -14 0 17 -36 33 -190 86 -116 39 -150 46 -150 30z"/>
<path d="M2300 2987 c0 -7 51 -29 118 -51 97 -33 168 -61 215 -84 4 -2 7 3 7
11 0 8 -16 23 -37 32 -29 14 -289 105 -300 105 -2 0 -3 -6 -3 -13z"/>
<path d="M2300 2897 c0 -8 43 -26 108 -46 59 -18 129 -44 156 -57 61 -31 95
-29 51 3 -23 16 -289 113 -311 113 -2 0 -4 -6 -4 -13z"/>
<path d="M3135 3373 c-94 -21 -334 -118 -322 -129 3 -4 55 12 114 34 59 22
136 49 170 59 35 10 63 24 63 31 0 6 -1 11 -2 11 -2 -1 -12 -3 -23 -6z"/>
<path d="M3030 3246 c-104 -36 -189 -70 -209 -83 -2 -2 -2 -6 2 -9 3 -3 66 17
139 44 74 27 149 53 166 57 33 7 48 20 34 29 -4 2 -64 -15 -132 -38z"/>
<path d="M3005 3146 c-66 -24 -135 -50 -152 -60 -53 -27 -38 -38 20 -14 28 11
103 38 166 59 63 21 119 43 125 49 21 21 -42 8 -159 -34z"/>
<path d="M3029 3056 c-130 -45 -215 -83 -205 -93 3 -3 40 8 83 25 43 17 115
43 160 57 75 24 102 39 91 50 -2 3 -60 -15 -129 -39z"/>
<path d="M3010 2957 c-141 -48 -182 -66 -188 -85 -2 -8 10 -6 40 6 23 10 103
38 176 61 72 23 132 47 132 52 0 16 -32 9 -160 -34z"/>
<path d="M3045 2876 c-119 -40 -225 -87 -208 -93 6 -2 27 4 45 13 18 10 87 34
152 53 66 20 121 42 124 49 5 17 0 16 -113 -22z"/>
<path d="M2258 2623 c6 -2 18 -2 25 0 6 3 1 5 -13 5 -14 0 -19 -2 -12 -5z"/>
<path d="M2332 2468 c-28 -28 -1 -75 38 -63 14 4 20 15 20 35 0 36 -33 53 -58
28z"/>
<path d="M3086 2464 c-19 -19 -20 -25 -3 -48 20 -27 51 -17 55 18 5 42 -24 59
-52 30z"/>
<path d="M2132 2220 c-18 -30 1 -60 38 -60 20 0 31 6 35 20 15 48 -46 82 -73
40z"/>
<path d="M3276 2234 c-29 -28 -16 -74 20 -74 38 0 52 60 20 82 -16 11 -23 10
-40 -8z"/>
<path d="M1431 3781 c-11 -11 -23 -32 -27 -46 -8 -31 12 -82 37 -96 17 -9 19
-24 19 -188 l0 -178 67 -64 c64 -60 68 -63 71 -39 3 18 -7 35 -42 68 l-46 43
0 177 c0 163 1 178 19 189 11 7 24 28 31 48 10 30 9 40 -7 68 -16 27 -26 32
-60 35 -32 2 -47 -2 -62 -17z m79 -54 c0 -32 -18 -49 -42 -36 -18 10 -24 39
-11 52 3 4 17 7 30 7 17 0 23 -6 23 -23z"/>
<path d="M3699 3771 c-18 -19 -29 -40 -29 -58 0 -33 25 -73 46 -73 12 0 14
-30 14 -180 l0 -179 -45 -48 c-44 -47 -64 -87 -51 -101 4 -3 38 27 76 68 l69
75 1 174 c0 170 0 174 25 203 74 88 -25 200 -106 119z m69 -30 c20 -12 11 -56
-12 -56 -27 0 -43 29 -27 49 15 18 21 19 39 7z"/>
<path d="M1200 3643 c-29 -26 -33 -36 -33 -77 0 -48 26 -89 65 -102 16 -5 18
-17 18 -121 l0 -117 177 -173 c97 -95 178 -173 180 -173 1 0 3 12 3 26 0 21
-33 60 -155 180 l-155 154 0 107 0 107 33 27 c28 24 32 33 32 78 0 63 -31 100
-92 108 -34 4 -45 1 -73 -24z m90 -43 c36 -36 21 -90 -26 -90 -23 0 -54 33
-54 57 0 15 36 53 50 53 6 0 19 -9 30 -20z"/>
<path d="M3944 3661 c-67 -28 -84 -117 -34 -171 30 -32 30 -34 30 -143 l0
-110 -140 -141 c-159 -161 -173 -178 -168 -209 l3 -22 20 21 c11 12 91 93 178
181 l157 160 0 111 c0 100 2 111 19 117 45 14 81 65 81 114 0 63 -86 117 -146
92z m68 -58 c11 -9 18 -30 18 -50 0 -27 -5 -35 -26 -43 -59 -23 -99 46 -52 90
26 24 36 25 60 3z"/>
<path d="M990 3222 c-100 -53 -82 -208 27 -228 18 -3 33 -11 33 -17 0 -5 52
-61 115 -122 63 -62 115 -117 115 -124 0 -12 -39 -14 -116 -5 -44 6 -52 10
-61 34 -13 35 -66 64 -100 55 -70 -17 -100 -116 -50 -163 40 -37 147 -21 147
22 0 9 28 17 85 25 47 6 93 15 101 18 11 4 59 -38 160 -141 79 -80 148 -146
154 -146 5 0 10 9 10 21 0 14 -87 106 -260 279 l-260 258 36 36 c20 20 40 36
46 36 5 0 106 -95 224 -212 194 -192 214 -209 214 -182 0 24 -32 60 -197 226
-109 109 -206 200 -215 203 -9 3 -20 16 -24 28 -16 55 -38 87 -69 101 -43 21
-72 20 -115 -2z m113 -74 c54 -73 -56 -153 -112 -82 -26 33 -26 41 -1 82 18
29 25 33 57 30 25 -2 42 -11 56 -30z m-54 -392 c7 -8 11 -27 9 -43 -2 -23 -8
-28 -32 -28 -38 0 -54 25 -38 59 13 29 43 34 61 12z"/>
<path d="M4154 3224 c-30 -14 -64 -59 -64 -86 -1 -7 -38 -47 -83 -88 -119
-109 -360 -365 -371 -395 -6 -13 -7 -28 -3 -31 6 -6 267 256 340 342 16 18 48
49 72 68 l42 35 41 -39 41 -38 -239 -244 c-257 -262 -300 -311 -300 -339 0
-29 14 -23 55 24 21 23 139 147 264 276 124 129 235 244 247 256 12 13 35 26
51 29 43 10 84 56 90 103 13 100 -91 173 -183 127z m107 -63 c35 -35 37 -66 7
-98 -30 -33 -80 -31 -107 3 -28 35 -26 69 4 99 32 33 60 31 96 -4z"/>
<path d="M4177 2794 c-15 -14 -29 -35 -32 -45 -5 -15 -17 -19 -58 -20 -29 -1
-63 -4 -77 -8 -23 -6 -20 -8 22 -19 26 -7 60 -12 75 -12 19 0 37 -10 55 -30
22 -25 34 -30 71 -30 78 0 117 62 83 129 -32 62 -96 78 -139 35z m83 -42 c45
-36 1 -99 -50 -72 -25 14 -27 65 -2 79 23 14 27 14 52 -7z"/>
<path d="M1163 2553 c-95 -3 -103 -5 -103 -23 0 -19 7 -20 118 -20 l118 0 157
-157 c141 -142 157 -155 157 -129 0 30 -52 90 -203 236 -79 75 -113 101 -132
98 -5 -1 -56 -4 -112 -5z"/>
<path d="M3783 2393 c-138 -140 -177 -193 -142 -193 6 0 79 70 163 155 l151
155 123 0 c112 0 123 2 120 18 -3 15 -18 17 -133 19 l-130 2 -152 -156z"/>
<path d="M1043 2424 c-66 -33 -82 -135 -28 -181 19 -17 39 -23 74 -23 51 0 84
22 101 66 8 20 16 24 53 24 40 0 47 -5 118 -78 l76 -77 8 -200 c10 -237 10
-241 7 -417 -2 -129 -3 -138 -27 -166 -28 -33 -31 -58 -11 -84 18 -24 51 -23
76 2 21 21 27 74 10 85 -9 6 -17 441 -12 693 l2 93 -92 95 -91 94 -53 0 c-50
0 -55 2 -69 31 -15 28 -66 59 -97 59 -7 0 -27 -8 -45 -16z m81 -60 c25 -24 20
-71 -9 -90 -23 -15 -27 -15 -49 0 -33 21 -41 52 -22 81 19 29 57 33 80 9z
m347 -1024 c10 -6 19 -20 19 -30 0 -16 -7 -20 -30 -20 -34 0 -49 22 -30 45 15
18 16 18 41 5z"/>
<path d="M4128 2423 c-15 -10 -33 -30 -39 -45 -11 -27 -15 -28 -76 -28 l-65 0
-103 -106 c-69 -71 -105 -116 -109 -136 -3 -17 -6 -134 -6 -260 0 -197 2 -229
15 -235 9 -3 18 -4 20 -1 2 2 5 98 5 213 2 301 -4 278 102 390 l90 95 57 0
c53 0 57 -2 69 -30 14 -31 61 -60 98 -60 81 0 127 84 89 165 -26 54 -93 71
-147 38z m92 -53 c38 -38 16 -100 -35 -100 -26 0 -55 33 -55 62 0 22 34 58 55
58 8 0 24 -9 35 -20z"/>
<path d="M3877 1880 c-3 -47 -10 -183 -13 -302 l-7 -218 32 0 c31 0 41 16 21
36 -6 6 -13 125 -18 290 -6 224 -9 262 -15 194z"/>
<path d="M1989 1517 c-49 -38 -40 -82 22 -102 46 -16 45 -41 -1 -38 -52 3 -67
-4 -44 -22 28 -21 87 -19 109 5 27 30 13 65 -36 84 -47 19 -47 41 1 41 41 0
49 18 15 33 -32 15 -46 15 -66 -1z"/>
<path d="M2144 1496 c-24 -24 -34 -43 -34 -64 0 -34 39 -87 68 -94 23 -6 82
17 82 31 0 17 -19 22 -40 11 -43 -23 -85 33 -60 80 8 16 20 21 43 20 49 -3 57
-1 57 13 0 15 -41 37 -66 37 -9 0 -31 -15 -50 -34z"/>
<path d="M2754 1493 c-50 -67 -52 -68 -68 -29 -14 34 -52 64 -64 51 -4 -4 -9
-43 -11 -87 -2 -59 0 -83 10 -89 21 -13 29 0 29 49 l1 47 20 -27 c27 -36 40
-35 62 4 22 38 35 28 39 -31 2 -25 9 -46 16 -49 9 -3 12 21 12 97 0 56 -4 101
-9 101 -5 0 -21 -17 -37 -37z"/>
<path d="M1630 1429 c0 -81 2 -90 18 -87 10 2 18 14 20 31 3 24 7 27 42 27 29
0 43 6 54 22 22 31 20 45 -9 73 -19 20 -34 25 -75 25 l-50 0 0 -91z m98 29
c-2 -17 -11 -24 -30 -26 -24 -3 -28 0 -28 22 0 22 4 26 31 26 26 0 30 -3 27
-22z"/>
<path d="M1827 1488 c-8 -18 -23 -53 -32 -78 -9 -25 -19 -51 -22 -57 -3 -8 3
-13 15 -13 11 0 22 7 26 15 3 9 18 15 40 15 21 0 36 -6 40 -15 3 -8 14 -15 25
-15 19 0 19 2 -4 63 -40 109 -44 117 -59 117 -8 0 -22 -15 -29 -32z m40 -72
c-4 -9 -13 -16 -22 -16 -18 0 -19 5 -4 32 13 24 35 9 26 -16z"/>
<path d="M2334 1488 c-10 -18 -25 -58 -34 -90 -17 -54 -17 -56 1 -61 12 -3 20
2 24 13 3 10 12 21 20 24 19 7 65 -10 65 -24 0 -5 9 -10 21 -10 13 0 19 5 16
13 -3 6 -13 32 -22 57 -33 86 -46 110 -60 110 -8 0 -22 -15 -31 -32z m43 -74
c-3 -3 -12 -4 -20 -2 -11 2 -12 9 -5 28 l10 25 11 -23 c5 -12 8 -25 4 -28z"/>
<path d="M2472 1433 l3 -88 55 0 c42 0 55 3 55 15 0 10 -12 16 -37 18 l-38 3
0 70 c0 63 -2 69 -20 69 -20 0 -21 -5 -18 -87z"/>
<path d="M2857 1513 c-4 -3 -7 -44 -7 -90 l0 -83 65 0 c51 0 65 3 65 15 0 11
-12 15 -51 15 -43 0 -50 3 -47 18 2 11 15 19 36 22 40 6 43 24 5 28 -64 8 -48
52 18 52 28 0 39 4 39 15 0 12 -13 15 -58 15 -32 0 -62 -3 -65 -7z"/>
<path d="M3025 1497 c-3 -12 -5 -52 -3 -87 2 -51 6 -65 20 -68 14 -3 17 6 20
48 l3 52 33 -46 c30 -43 57 -65 67 -54 3 2 8 44 11 92 7 83 6 88 -12 84 -12
-2 -19 -12 -19 -28 -4 -90 0 -88 -51 -26 -26 31 -50 56 -55 56 -5 0 -11 -10
-14 -23z"/>
<path d="M3220 1499 c0 -15 5 -20 23 -17 21 3 22 -1 27 -67 4 -56 8 -70 23
-73 15 -3 17 5 17 67 0 68 1 71 24 71 20 0 36 16 36 36 0 2 -34 4 -75 4 -69 0
-75 -2 -75 -21z"/>
<path d="M3415 1495 c-32 -31 -34 -91 -4 -129 15 -20 29 -26 57 -26 90 0 129
93 64 151 -41 37 -84 38 -117 4z m92 -27 c27 -25 29 -54 6 -80 -20 -22 -51
-23 -75 -1 -24 21 -23 58 2 83 26 26 38 25 67 -2z"/>
<path d="M3610 1430 c0 -71 3 -90 14 -90 9 0 16 12 18 27 4 38 30 40 51 3 11
-17 27 -30 38 -30 18 0 18 2 5 28 -12 23 -12 30 0 47 21 29 17 71 -8 89 -13 9
-43 16 -70 16 l-48 0 0 -90z m106 38 c10 -16 -17 -38 -47 -38 -24 0 -29 4 -29
24 0 13 5 26 12 28 17 6 57 -3 64 -14z"/>
<path d="M1700 1181 c0 -71 -3 -83 -25 -107 -32 -34 -32 -74 -1 -103 32 -30
82 -26 109 11 23 31 19 61 -15 104 -19 23 -23 41 -23 99 0 65 -2 70 -22 73
-22 3 -23 1 -23 -77z m58 -152 c4 -21 -24 -50 -43 -43 -17 7 -26 30 -18 50 7
20 57 15 61 -7z"/>
<path d="M2017 1253 c-4 -3 -7 -40 -7 -80 l0 -74 -34 -14 c-95 -40 -82 -155
17 -155 65 0 103 61 73 119 -13 24 -15 46 -10 95 4 35 4 76 0 90 -6 25 -25 34
-39 19z m10 -229 c8 -22 -10 -49 -32 -49 -22 0 -40 27 -32 49 8 21 56 21 64 0z"/>
<path d="M2180 1064 c0 -160 -3 -198 -15 -210 -8 -9 -15 -33 -15 -55 0 -47 35
-89 73 -89 32 0 73 33 81 65 8 32 -18 83 -48 95 -21 8 -23 16 -29 107 -4 54
-7 140 -7 191 0 85 -1 92 -20 92 -19 0 -20 -7 -20 -196z m64 -250 c19 -19 4
-57 -21 -52 -26 5 -39 34 -24 52 17 20 26 20 45 0z"/>
<path d="M2330 1091 c0 -93 -3 -176 -6 -185 -5 -12 0 -16 22 -16 l29 0 -3 185
c-3 176 -4 185 -22 185 -19 0 -20 -8 -20 -169z"/>
<path d="M2480 1079 c0 -179 0 -182 -25 -211 -44 -52 -25 -118 40 -134 49 -12
103 34 88 74 -7 17 -23 15 -23 -3 0 -16 -30 -35 -54 -35 -8 0 -21 10 -27 22
-10 18 -8 24 10 39 12 10 30 15 43 11 21 -5 21 -4 5 19 -14 20 -17 52 -17 211
0 181 -1 188 -20 188 -19 0 -20 -7 -20 -181z"/>
<path d="M2671 1026 l2 -236 -26 -24 c-35 -32 -42 -67 -23 -105 32 -61 100
-70 148 -19 38 41 33 79 -17 125 l-35 33 -2 227 -3 228 -23 3 -24 4 3 -236z
m64 -310 c31 -46 -22 -89 -57 -46 -22 27 -22 34 -2 54 22 22 41 20 59 -8z"/>
<path d="M2791 1192 l1 -67 13 40 c18 54 18 82 0 89 -12 4 -15 -6 -14 -62z"/>
<path d="M2910 1075 l0 -186 -27 -23 c-37 -32 -39 -99 -4 -127 56 -45 121 -10
121 65 0 36 -5 48 -26 65 l-27 21 4 183 4 182 -22 3 -23 3 0 -186z m48 -271
c6 -41 -50 -56 -60 -16 -8 29 3 43 31 40 17 -2 27 -10 29 -24z"/>
<path d="M3060 1085 c0 -168 1 -175 20 -175 18 0 20 7 20 58 0 31 3 89 7 129
8 100 -3 163 -28 163 -18 0 -19 -9 -19 -175z"/>
<path d="M3196 1229 c-3 -17 -6 -104 -6 -193 l-1 -161 -32 -20 c-27 -17 -32
-27 -35 -66 -2 -35 1 -49 18 -64 27 -24 83 -25 110 0 27 25 27 87 -1 126 -20
28 -21 40 -18 217 4 165 2 187 -12 190 -11 2 -18 -7 -23 -29z m32 -441 c5 -39
-30 -56 -58 -28 -28 28 -11 63 28 58 21 -2 28 -9 30 -30z"/>
<path d="M3340 1180 c0 -78 -1 -83 -30 -110 -36 -34 -39 -75 -9 -114 27 -34
71 -35 104 -1 32 31 32 66 0 103 -21 25 -25 41 -27 113 -3 70 -6 84 -20 87
-16 3 -18 -6 -18 -78z m34 -146 c19 -7 21 -35 4 -52 -30 -30 -77 3 -57 40 10
19 26 22 53 12z"/>
<path d="M3543 1184 c7 -71 5 -78 -18 -106 -41 -49 -30 -104 26 -133 16 -9 39
-13 50 -10 32 11 59 47 59 79 -1 35 -13 55 -52 80 -26 17 -28 23 -28 92 0 69
-1 74 -21 74 -21 0 -22 -3 -16 -76z m66 -151 c11 -20 -3 -53 -23 -53 -7 0 -21
9 -31 20 -15 16 -15 22 -5 35 17 20 47 19 59 -2z"/>
<path d="M1950 1210 c0 -16 5 -30 10 -30 6 0 10 14 10 30 0 17 -4 30 -10 30
-5 0 -10 -13 -10 -30z"/>
</g>
</svg>
